<svg xmlns="http://www.w3.org/2000/svg" width="4167" height="4167"><path d="M2406.861 2916.45c-29.632 4.263-56.803 16.497-81.361 36.633-31.062 25.468-54.175 64.511-63.26 106.859-2.522 11.754-2.696 14.19-2.717 38.058-.021 22.96.213 26.646 2.343 37 12.215 59.387 46.396 105.64 96.634 130.764 30.949 15.478 69.366 19.906 105.254 12.13 33.821-7.327 67.594-28.142 90.693-55.895 20.669-24.834 35.782-56.893 41.721-88.499 1.896-10.091 2.261-15.499 2.293-34 .04-22.952-.586-28.743-5.041-46.643-13.592-54.601-49.176-99.728-96.92-122.91-20.707-10.054-37.018-13.826-62.5-14.453-11.801-.291-20.639.02-27.139.956m902.755-.352c-55.161 5.818-93.339 33.751-104.596 76.528-4.628 17.59-4.378 43.489.564 58.228 10.735 32.019 36.607 48.444 102.644 65.162 61.836 15.654 80.106 22.657 94.312 36.152 11.398 10.827 15.1 20.664 14.214 37.776-1.308 25.284-16.897 41.084-47.531 48.174-11.393 2.636-40.45 3.648-55.279 1.924-34.913-4.059-73.752-20.289-97.538-40.761l-7.02-6.042-10.693 18.881c-5.881 10.384-10.678 19.218-10.66 19.63.018.413 3.506 3.293 7.75 6.401 31.129 22.795 66.995 37.17 105.876 42.433 17.306 2.343 50.568 2.342 65.841-.001 31.333-4.807 53.336-14.116 69.735-29.504 9.556-8.967 15.52-17.114 20.672-28.235 5.848-12.625 7.212-19.166 7.785-37.344.427-13.567.193-17.5-1.538-25.865-4.346-21.004-15.494-37.381-33.897-49.799-16.452-11.102-41.422-20.761-73.465-28.419-52.047-12.438-65.332-16.253-78.292-22.482-14.383-6.912-22.163-14.407-26.628-25.653-1.952-4.918-2.301-7.649-2.334-18.282-.032-10.569.323-13.545 2.299-19.266 9.731-28.176 37.416-41.153 84.119-39.432 11.445.422 18.313 1.227 26.044 3.05 22.793 5.377 43.778 14.949 58.274 26.579l8.693 6.975 3.892-6.703a25379.07 25379.07 0 0 0 10.555-18.203l6.663-11.5-3.288-2.82c-11.465-9.831-36.266-23.233-53.894-29.122-24.683-8.247-55.561-11.384-83.279-8.46M692 2938v20h125v321h46v-321h125v-40H692v20m470 160.5V3279h46v-361h-46v180.5m255-.032V3279h45.985l.258-64.75.257-64.75 63-.53c60.719-.51 63.279-.608 70.698-2.695 47.619-13.4 80.011-59.067 79.993-112.775-.006-20.274-3.02-33.12-12.243-52.195-5.544-11.466-17.269-27.695-25.184-34.859-12.824-11.607-27.757-20.272-43.326-25.141l-8.938-2.795-85.25-.287-85.25-.287v180.532M1823 2938v20h124v321h45.994l.253-160.25.253-160.25 62.25-.258 62.25-.257V2918h-295v20m963 160.5V3279h245v-41h-200v-124h170v-39h-170.016l.258-58.25.258-58.25 97.25-.255 97.25-.255V2918h-240v180.5m-377.994-139.868c-42.76 7.912-78.874 41.719-94.399 88.368-6.409 19.259-7.984 29.144-8.049 50.5-.066 21.727 1.402 31.955 7.177 50 7.093 22.165 18.047 41.064 32.565 56.191 23.604 24.592 50.615 36.309 83.7 36.309 23.798 0 42.3-5.457 61.506-18.143 35.096-23.178 57.059-62.761 61.651-111.107 3.782-39.811-9.916-83.288-35.471-112.581-15.941-18.274-37.81-32.176-59.567-37.867-12.549-3.282-36.079-4.082-49.113-1.67m-944.525.564c-.274.717-.382 34.604-.24 75.304l.259 74h57c52.469 0 57.473-.146 62.948-1.835 21.547-6.65 36.415-22.871 44.191-48.214 2.497-8.138 2.75-10.404 2.785-24.951.038-15.536-.056-16.275-3.244-25.5-4.162-12.047-9.904-21.794-17.538-29.772-7.824-8.177-15.079-12.901-25.598-16.668l-8.544-3.06-55.761-.304c-45.134-.246-55.855-.055-56.258 1m-289.533 388.846c-59.797 5.334-99.769 36.459-109.105 84.958-.696 3.617-1.218 13.375-1.176 22 .061 12.422.493 17.046 2.173 23.287 3.227 11.985 9.463 23.037 17.646 31.275 16.731 16.845 37.436 25.943 90.014 39.556 41.072 10.633 54.588 14.684 66.782 20.017 26.548 11.609 38.75 27.166 38.703 49.343-.068 32.219-22.989 50.69-67.675 54.538-46 3.962-103.707-14.343-134.19-42.566l-5.794-5.364-10.663 18.857c-5.865 10.371-10.663 19.309-10.663 19.862 0 1.282 10.923 9.389 22.513 16.708 46.213 29.186 107.812 40.755 164.723 30.937 19.509-3.365 39.897-11.375 53.301-20.939 13.599-9.704 26.475-26.595 32.112-42.126 4.853-13.37 6.596-34.175 4.277-51.063-4.755-34.621-27.647-57.84-72.164-73.189-13.946-4.809-24.847-7.769-62.763-17.043-31.783-7.773-42.444-11.205-55.21-17.772-10.855-5.583-19.445-14.227-22.858-23.001-2.76-7.092-3.772-23.948-1.962-32.665 2.781-13.398 13.159-27.608 25.109-34.382 18.58-10.531 55.972-14.207 84.183-8.276 25.114 5.279 50.213 16.951 63.818 29.676 2.723 2.548 5.261 4.323 5.639 3.945.378-.378 5.301-8.659 10.94-18.401l10.252-17.714-3.109-2.5c-13.53-10.879-37.12-23.535-54.801-29.403-24.108-8-52.393-11.023-80.052-8.555m467.304-.044c-33.95 3.579-67.024 18.825-93.625 43.158-39.433 36.071-63.402 94.992-60.142 147.844 4.405 71.408 41.021 129.539 100.443 159.464 33.867 17.055 80.156 20.097 119.072 7.825 11.615-3.663 33.604-14.909 44.5-22.759 17.384-12.525 31.928-27.582 43.977-45.53 6.867-10.228 18.298-33.249 22.383-45.079 11.696-33.864 13.17-73.683 4.051-109.421-3.428-13.435-6.789-22.382-13.902-37-10.779-22.155-22.019-37.65-39.173-54-12.862-12.26-25.689-21.195-42.336-29.489-21.312-10.619-37.854-14.682-62.9-15.45-7.755-.238-17.812-.041-22.348.437m1324.748-.343c-14.388 1.379-24.027 2.923-33.609 5.384-42.687 10.964-71.656 38.951-79.649 76.951-2.683 12.756-2.848 34.231-.348 45.51 3.631 16.39 13.022 31.211 26.106 41.206 16.546 12.639 38.001 21.044 84 32.905 15.95 4.112 34.258 9.044 40.685 10.958 44.838 13.354 62.815 29.903 62.815 57.826 0 29.324-17.961 46.708-55 53.232-13.022 2.294-38.939 2.272-53.378-.045-36.187-5.807-72.167-21.69-93.687-41.358l-5.514-5.04-10.461 18.491c-5.753 10.17-10.588 19.036-10.744 19.702-.156.666 2.984 3.649 6.977 6.627 49.935 37.249 115.951 52.443 180.043 41.439 47.09-8.085 79.633-34.932 88.416-72.943 2.605-11.277 2.564-39.927-.072-50-9.794-37.419-39.896-58.626-105.824-74.553-71.737-17.33-83.451-21.554-96.804-34.902-8.633-8.631-11.022-14.562-11.698-29.057-1.93-41.32 29.924-64.11 86.246-61.707 33.206 1.417 68.82 14.668 87.888 32.701l5.143 4.865 10.759-18.674 10.759-18.673-2.775-2.308c-12.011-9.991-36.944-23.405-55.046-29.616-20.972-7.195-53.27-11.025-75.228-8.921M2014 3530.5V3711h248v-39.99l-100.75-.255-100.75-.255-.253-160.25-.253-160.25H2014v180.5m420 0V3711h246v-39.99l-99.75-.255-99.75-.255-.258-62.25-.257-62.25H2650V3508.011l-84.75-.255-84.75-.256-.258-58.25-.258-58.25H2675v-41h-241v180.5m-795.165-139.957c-43.857 6.832-81.46 42.036-97.152 90.957-6.151 19.174-7.183 26.426-7.115 50 .051 17.791.395 22.512 2.253 30.895 12.989 58.599 49.964 98.586 100.108 108.261 12.113 2.337 31.873 2.151 44.071-.416 45.645-9.605 82.523-48.178 95.357-99.74 7.55-30.329 6.918-58.151-1.986-87.477-10.991-36.2-35.746-66.597-67.088-82.381-20.407-10.276-44.494-13.83-68.448-10.099" fill="#241c23" fill-rule="evenodd"/><path d="M2014 29.105c-25.242.982-70.109 3.525-95.5 5.413-22.038 1.639-20.542.833-25.49 13.737-21.623 56.392-81.909 323.995-169.015 750.245-43.923 214.938-101.233 503.474-109.938 553.5-17.652 101.446-21.687 191.868-13.009 291.5 1.795 20.613 5.825 56.331 11.451 101.5 12.333 99.006 14.504 122.482 15.212 164.5.804 47.76-1.275 89.128-9.704 193-7.686 94.722-9.68 127.244-10.638 173.5-1.941 93.686 9.622 158.034 35.481 197.458 5.55 8.461 18.944 22.63 26.314 27.838 2.935 2.073 11.596 7.837 19.248 12.809 24.064 15.636 43.602 32.427 56.828 48.841 29.843 37.034 33.953 75.139 10.587 98.145-10.701 10.536-24.225 15.474-41.827 15.274-9.831-.112-13.047-.768-50.5-10.299-154.994-39.443-253.131-69.312-292.734-89.097-11.686-5.838-32.252-19.602-47.08-31.508-67.117-53.894-112.178-122.039-128.078-193.694-4.12-18.566-5.541-30.804-7.115-61.267-4.751-91.933-12.215-160.828-25.071-231.404-21.346-117.186-54.775-218.314-106.968-323.596-21.957-44.293-39.67-76.174-86.948-156.5-56.879-96.638-78.762-136.918-103.222-190-21.439-46.527-31.501-77.308-36.937-113-2.456-16.129-2.452-47.577.008-62.378 9.901-59.559 42.121-107.433 109.307-162.413 16.36-13.389 34.538-27.042 70.838-53.204 83.826-60.417 115.464-87.575 145.04-124.505 39.358-49.143 66.546-125.826 84.916-239.5 11.106-68.727 17.744-142.46 21.696-241 1.338-33.373 1.646-158.826.437-178.285-.775-12.465-.848-12.768-2.942-12.105-12.529 3.964-111.228 52.04-150.199 73.163-136.302 73.874-262.038 161.181-377.161 261.886-64.968 56.832-137.274 128.948-192.348 191.841-145.158 165.767-259.769 347.245-345.453 547C63.229 1580.167 8.912 1909.84 34.08 2244c30.82 409.21 184.243 799.422 440.932 1121.46 340.925 427.72 836.106 702.211 1375.488 762.469 114.227 12.761 234.349 16.246 346 10.039 367.88-20.453 716.931-136.146 1022.197-338.81 91.769-60.924 174.137-125.617 259.275-203.637 22.117-20.268 87.69-85.506 108.649-108.093 176.052-189.734 312.227-404.324 406.402-640.428 121.865-305.522 168.25-636.792 135.401-967-37.203-373.974-175.296-727.676-401.66-1028.781-173.449-230.718-394.186-422.991-646.979-563.551-94.866-52.748-193.913-97.87-296.285-134.977-26.284-9.527-34.313-12.211-34.867-11.657-.271.271.593 18.712 1.921 40.979 3.238 54.292 25.456 433.777 35.421 604.987 10.68 183.483 24.371 423.389 27.48 481.5 1.382 25.85 2.987 55.1 3.566 65 5.736 98.143 26.93 200.729 64.982 314.526 18.294 54.712 38.231 106.886 74.503 194.974 44.562 108.221 57.724 143.716 66.374 179 7.626 31.103 13.816 68.157 22.137 132.5 16.556 128.02 25.419 176.388 41.5 226.5 29.68 92.485 77.806 148.664 145.983 170.41 7.7 2.456 21.2 6.749 30 9.54 41.524 13.172 69.743 34.035 75.948 56.15 8.439 30.076-27.444 55.556-98.448 69.906-64.404 13.017-176.802 16.867-245 8.391-119.059-14.796-204.649-68.997-274.755-173.991-38.4-57.509-70.581-123.592-128.693-264.266-23.872-57.787-28.07-67.115-41.004-91.115-41.843-77.647-99.25-150.371-186.708-236.525-26.515-26.12-44.864-43.618-95.342-90.924-40.561-38.01-94.284-91.69-113.017-112.925-37.702-42.737-60.292-75.097-78.989-113.151-25.424-51.745-36.098-100.399-31.437-143.289 4.248-39.086 20.709-76.412 51.911-117.711 11.953-15.821 21.042-26.681 48.999-58.546 28.176-32.115 38.416-44.391 51.681-61.954 38.642-51.163 58.17-95.079 66.48-149.5 8.467-55.45-2.606-175.074-33.189-358.563-46.208-277.237-124.874-620.963-156.59-684.212-5.579-11.127-4.738-10.75-23.597-10.571-8.937.084-25.475.512-36.75.951m392.861 2887.345c-29.632 4.263-56.803 16.497-81.361 36.633-31.062 25.468-54.175 64.511-63.26 106.859-2.522 11.754-2.696 14.19-2.717 38.058-.021 22.96.213 26.646 2.343 37 12.215 59.387 46.396 105.64 96.634 130.764 30.949 15.478 69.366 19.906 105.254 12.13 33.821-7.327 67.594-28.142 90.693-55.895 20.669-24.834 35.782-56.893 41.721-88.499 1.896-10.091 2.261-15.499 2.293-34 .04-22.952-.586-28.743-5.041-46.643-13.592-54.601-49.176-99.728-96.92-122.91-20.707-10.054-37.018-13.826-62.5-14.453-11.801-.291-20.639.02-27.139.956m902.755-.352c-55.161 5.818-93.339 33.751-104.596 76.528-4.628 17.59-4.378 43.489.564 58.228 10.735 32.019 36.607 48.444 102.644 65.162 61.836 15.654 80.106 22.657 94.312 36.152 11.398 10.827 15.1 20.664 14.214 37.776-1.308 25.284-16.897 41.084-47.531 48.174-11.393 2.636-40.45 3.648-55.279 1.924-34.913-4.059-73.752-20.289-97.538-40.761l-7.02-6.042-10.693 18.881c-5.881 10.384-10.678 19.218-10.66 19.63.018.413 3.506 3.293 7.75 6.401 31.129 22.795 66.995 37.17 105.876 42.433 17.306 2.343 50.568 2.342 65.841-.001 31.333-4.807 53.336-14.116 69.735-29.504 9.556-8.967 15.52-17.114 20.672-28.235 5.848-12.625 7.212-19.166 7.785-37.344.427-13.567.193-17.5-1.538-25.865-4.346-21.004-15.494-37.381-33.897-49.799-16.452-11.102-41.422-20.761-73.465-28.419-52.047-12.438-65.332-16.253-78.292-22.482-14.383-6.912-22.163-14.407-26.628-25.653-1.952-4.918-2.301-7.649-2.334-18.282-.032-10.569.323-13.545 2.299-19.266 9.731-28.176 37.416-41.153 84.119-39.432 11.445.422 18.313 1.227 26.044 3.05 22.793 5.377 43.778 14.949 58.274 26.579l8.693 6.975 3.892-6.703a25379.07 25379.07 0 0 0 10.555-18.203l6.663-11.5-3.288-2.82c-11.465-9.831-36.266-23.233-53.894-29.122-24.683-8.247-55.561-11.384-83.279-8.46M692 2938v20h125v321h46v-321h125v-40H692v20m470 160.5V3279h46v-361h-46v180.5m255-.032V3279h45.985l.258-64.75.257-64.75 63-.53c60.719-.51 63.279-.608 70.698-2.695 47.619-13.4 80.011-59.067 79.993-112.775-.006-20.274-3.02-33.12-12.243-52.195-5.544-11.466-17.269-27.695-25.184-34.859-12.824-11.607-27.757-20.272-43.326-25.141l-8.938-2.795-85.25-.287-85.25-.287v180.532M1823 2938v20h124v321h45.994l.253-160.25.253-160.25 62.25-.258 62.25-.257V2918h-295v20m963 160.5V3279h245v-41h-200v-124h170v-39h-170.016l.258-58.25.258-58.25 97.25-.255 97.25-.255V2918h-240v180.5m-377.994-139.868c-42.76 7.912-78.874 41.719-94.399 88.368-6.409 19.259-7.984 29.144-8.049 50.5-.066 21.727 1.402 31.955 7.177 50 7.093 22.165 18.047 41.064 32.565 56.191 23.604 24.592 50.615 36.309 83.7 36.309 23.798 0 42.3-5.457 61.506-18.143 35.096-23.178 57.059-62.761 61.651-111.107 3.782-39.811-9.916-83.288-35.471-112.581-15.941-18.274-37.81-32.176-59.567-37.867-12.549-3.282-36.079-4.082-49.113-1.67m-944.525.564c-.274.717-.382 34.604-.24 75.304l.259 74h57c52.469 0 57.473-.146 62.948-1.835 21.547-6.65 36.415-22.871 44.191-48.214 2.497-8.138 2.75-10.404 2.785-24.951.038-15.536-.056-16.275-3.244-25.5-4.162-12.047-9.904-21.794-17.538-29.772-7.824-8.177-15.079-12.901-25.598-16.668l-8.544-3.06-55.761-.304c-45.134-.246-55.855-.055-56.258 1m-289.533 388.846c-59.797 5.334-99.769 36.459-109.105 84.958-.696 3.617-1.218 13.375-1.176 22 .061 12.422.493 17.046 2.173 23.287 3.227 11.985 9.463 23.037 17.646 31.275 16.731 16.845 37.436 25.943 90.014 39.556 41.072 10.633 54.588 14.684 66.782 20.017 26.548 11.609 38.75 27.166 38.703 49.343-.068 32.219-22.989 50.69-67.675 54.538-46 3.962-103.707-14.343-134.19-42.566l-5.794-5.364-10.663 18.857c-5.865 10.371-10.663 19.309-10.663 19.862 0 1.282 10.923 9.389 22.513 16.708 46.213 29.186 107.812 40.755 164.723 30.937 19.509-3.365 39.897-11.375 53.301-20.939 13.599-9.704 26.475-26.595 32.112-42.126 4.853-13.37 6.596-34.175 4.277-51.063-4.755-34.621-27.647-57.84-72.164-73.189-13.946-4.809-24.847-7.769-62.763-17.043-31.783-7.773-42.444-11.205-55.21-17.772-10.855-5.583-19.445-14.227-22.858-23.001-2.76-7.092-3.772-23.948-1.962-32.665 2.781-13.398 13.159-27.608 25.109-34.382 18.58-10.531 55.972-14.207 84.183-8.276 25.114 5.279 50.213 16.951 63.818 29.676 2.723 2.548 5.261 4.323 5.639 3.945.378-.378 5.301-8.659 10.94-18.401l10.252-17.714-3.109-2.5c-13.53-10.879-37.12-23.535-54.801-29.403-24.108-8-52.393-11.023-80.052-8.555m467.304-.044c-33.95 3.579-67.024 18.825-93.625 43.158-39.433 36.071-63.402 94.992-60.142 147.844 4.405 71.408 41.021 129.539 100.443 159.464 33.867 17.055 80.156 20.097 119.072 7.825 11.615-3.663 33.604-14.909 44.5-22.759 17.384-12.525 31.928-27.582 43.977-45.53 6.867-10.228 18.298-33.249 22.383-45.079 11.696-33.864 13.17-73.683 4.051-109.421-3.428-13.435-6.789-22.382-13.902-37-10.779-22.155-22.019-37.65-39.173-54-12.862-12.26-25.689-21.195-42.336-29.489-21.312-10.619-37.854-14.682-62.9-15.45-7.755-.238-17.812-.041-22.348.437m1324.748-.343c-14.388 1.379-24.027 2.923-33.609 5.384-42.687 10.964-71.656 38.951-79.649 76.951-2.683 12.756-2.848 34.231-.348 45.51 3.631 16.39 13.022 31.211 26.106 41.206 16.546 12.639 38.001 21.044 84 32.905 15.95 4.112 34.258 9.044 40.685 10.958 44.838 13.354 62.815 29.903 62.815 57.826 0 29.324-17.961 46.708-55 53.232-13.022 2.294-38.939 2.272-53.378-.045-36.187-5.807-72.167-21.69-93.687-41.358l-5.514-5.04-10.461 18.491c-5.753 10.17-10.588 19.036-10.744 19.702-.156.666 2.984 3.649 6.977 6.627 49.935 37.249 115.951 52.443 180.043 41.439 47.09-8.085 79.633-34.932 88.416-72.943 2.605-11.277 2.564-39.927-.072-50-9.794-37.419-39.896-58.626-105.824-74.553-71.737-17.33-83.451-21.554-96.804-34.902-8.633-8.631-11.022-14.562-11.698-29.057-1.93-41.32 29.924-64.11 86.246-61.707 33.206 1.417 68.82 14.668 87.888 32.701l5.143 4.865 10.759-18.674 10.759-18.673-2.775-2.308c-12.011-9.991-36.944-23.405-55.046-29.616-20.972-7.195-53.27-11.025-75.228-8.921M2014 3530.5V3711h248v-39.99l-100.75-.255-100.75-.255-.253-160.25-.253-160.25H2014v180.5m420 0V3711h246v-39.99l-99.75-.255-99.75-.255-.258-62.25-.257-62.25H2650V3508.011l-84.75-.255-84.75-.256-.258-58.25-.258-58.25H2675v-41h-241v180.5m-795.165-139.957c-43.857 6.832-81.46 42.036-97.152 90.957-6.151 19.174-7.183 26.426-7.115 50 .051 17.791.395 22.512 2.253 30.895 12.989 58.599 49.964 98.586 100.108 108.261 12.113 2.337 31.873 2.151 44.071-.416 45.645-9.605 82.523-48.178 95.357-99.74 7.55-30.329 6.918-58.151-1.986-87.477-10.991-36.2-35.746-66.597-67.088-82.381-20.407-10.276-44.494-13.83-68.448-10.099" fill="#f3cb04" fill-rule="evenodd"/></svg>